<svg id="__tmb-1434" xmlns="http://www.w3.org/2000/svg" viewBox="0 0 512 512" style="opacity: 1; transition: opacity 0.3s ease 0s; overflow: visible;"><rect x="0" y="0" width="512" height="512" fill="none"></rect><svg xmlns="http://www.w3.org/2000/svg" viewBox="-1.3642420526593924e-12 0 512 512" data-svgdocument="" id="_FWNRMBjIxs___LnuR333V" class="fl-svgdocument" overflow="hidden" style="overflow: visible;"><rect fill="#fff" x="0" y="0" width="100%" height="100%"></rect><g id="_94C4bbQB8tEZaop8ygYfs" transform="matrix(1, 0, 0, 1, -0.000004531885679170955, 0.000004223068572173361)"><path id="_ldRmikpPRx-UwQTCs8yUo" d="M83.484 93h-67C13.723 93 12 90.923 12 88.161V70.318c0-1.341 0.281-2.626 1.237-3.566l33.621-33.168    c1.958-1.922 5.03-1.909 6.972 0.026l33.475 33.168C88.246 67.717 89 68.99 89 70.318v17.843C89 90.923 86.246 93 83.484 93z     M22 83h57V72.393L50.724 44.187L22 72.415V83z" fill="#1b8bd1" transform="matrix(1.5367107391357422, 0, 0, 1.5367107391357422, -2.305354595184326, 179.81703186035156)"></path><path id="_nARyeNY6FSK8I60irj81h" d="M93.28 56.984c-1.277 0-2.556-0.486-3.531-1.46L50.874 16.745c-0.325-0.324-0.861-0.327-1.192-0.001L10.224 55.521     c-1.97 1.935-5.135 1.907-7.071-0.062c-1.936-1.97-1.908-5.136 0.062-7.071l39.46-38.779c4.226-4.145 11.068-4.12 15.259 0.054     l38.878 38.782c1.955 1.95 1.959 5.116 0.009 7.071C95.844 56.494 94.562 56.984 93.28 56.984z" fill="#59bfff" transform="matrix(1.5367107391357422, 0, 0, 1.5367107391357422, -2.641686201095581, 179.2551727294922)"></path></g><path text="Super" text-anchor="start" font-size="100" letter-spacing="0" side="left" offset="0" dx="0" dy="0" space="preserve" href="" font-family="Montserrat" font-scale="contain" x="0" y="0" fill="#6d6e71" font-weight="700" data-fl-textpath="" id="_amGX10ULC6KO1ss4ECate" transform="matrix(0.679389476776123, 0, 0, 0.679389476776123, 163.7422637939453, 247.7740478515625)" d="M 31.3 1.2Q 23 1.2  15.25-1.05Q 7.5-3.3  2.8-6.9L 2.8-6.9L 8.3-19.1Q 12.8-15.8  19-13.8Q 25.2-11.8  31.4-11.8L 31.4-11.8Q 38.3-11.8  41.6-13.85Q 44.9-15.9  44.9-19.3L 44.9-19.3Q 44.9-21.8  42.95-23.45Q 41-25.1  37.95-26.1Q 34.9-27.1  29.7-28.3L 29.7-28.3Q 21.7-30.2  16.6-32.1Q 11.5-34  7.85-38.2Q 4.2-42.4  4.2-49.4L 4.2-49.4Q 4.2-55.5  7.5-60.45Q 10.8-65.4  17.45-68.3Q 24.1-71.2  33.7-71.2L 33.7-71.2Q 40.4-71.2  46.8-69.6Q 53.2-68  58-65L 58-65L 53-52.7Q 43.3-58.2  33.6-58.2L 33.6-58.2Q 26.8-58.2  23.55-56Q 20.3-53.8  20.3-50.2L 20.3-50.2Q 20.3-46.6  24.05-44.85Q 27.8-43.1  35.5-41.4L 35.5-41.4Q 43.5-39.5  48.6-37.6Q 53.7-35.7  57.35-31.6Q 61-27.5  61-20.5L 61-20.5Q 61-14.5  57.65-9.55Q 54.3-4.6  47.6-1.7Q 40.9 1.2  31.3 1.2L 31.3 1.2ZM 109.6-53.8L 125.2-53.8L 125.2 0L 110.4 0L 110.4-6.4Q 107.30000000000001-2.9  103-1.05Q 98.7 0.8  93.7 0.8L 93.7 0.8Q 83.10000000000001 0.8  76.9-5.3Q 70.7-11.4  70.7-23.4L 70.7-23.4L 70.7-53.8L 86.30000000000001-53.8L 86.30000000000001-25.7Q 86.30000000000001-12.7  97.2-12.7L 97.2-12.7Q 102.80000000000001-12.7  106.2-16.35Q 109.6-20  109.6-27.2L 109.6-27.2L 109.6-53.8ZM 171.5-54.6Q 179-54.6  185.15-51.15Q 191.3-47.7  194.8-41.45Q 198.3-35.2  198.3-26.9L 198.3-26.9Q 198.3-18.6  194.8-12.35Q 191.3-6.1  185.15-2.65Q 179 0.8  171.5 0.8L 171.5 0.8Q 161.2 0.8  155.3-5.7L 155.3-5.7L 155.3 19.4L 139.7 19.4L 139.7-53.8L 154.6-53.8L 154.6-47.6Q 160.4-54.6  171.5-54.6L 171.5-54.6ZM 168.8-12Q 174.8-12  178.65-16.05Q 182.5-20.1  182.5-26.9L 182.5-26.9Q 182.5-33.7  178.65-37.75Q 174.8-41.8  168.8-41.8L 168.8-41.8Q 162.8-41.8  158.95-37.75Q 155.1-33.7  155.1-26.9L 155.1-26.9Q 155.1-20.1  158.95-16.05Q 162.8-12  168.8-12L 168.8-12ZM 261.4-26.7Q 261.4-26.4  261.1-22.5L 261.1-22.5L 220.4-22.5Q 221.5-17.5  225.6-14.6Q 229.7-11.7  235.8-11.7L 235.8-11.7Q 240-11.7  243.25-12.95Q 246.5-14.2  249.3-16.9L 249.3-16.9L 257.6-7.9Q 250 0.8  235.4 0.8L 235.4 0.8Q 226.3 0.8  219.3-2.75Q 212.3-6.3  208.5-12.6Q 204.7-18.9  204.7-26.9L 204.7-26.9Q 204.7-34.8  208.45-41.15Q 212.2-47.5  218.75-51.05Q 225.3-54.6  233.4-54.6L 233.4-54.6Q 241.3-54.6  247.7-51.2Q 254.1-47.8  257.75-41.45Q 261.4-35.1  261.4-26.7L 261.4-26.7ZM 233.5-42.8Q 228.2-42.8  224.6-39.8Q 221-36.8  220.2-31.6L 220.2-31.6L 246.7-31.6Q 245.9-36.7  242.3-39.75Q 238.7-42.8  233.5-42.8L 233.5-42.8ZM 286.70000000000005-46.7Q 289.5-50.6  294.25-52.6Q 299-54.6  305.20000000000005-54.6L 305.20000000000005-54.6L 305.20000000000005-40.2Q 302.6-40.4  301.70000000000005-40.4L 301.70000000000005-40.4Q 295-40.4  291.20000000000005-36.65Q 287.40000000000003-32.9  287.40000000000003-25.4L 287.40000000000003-25.4L 287.40000000000003 0L 271.8 0L 271.8-53.8L 286.70000000000005-53.8L 286.70000000000005-46.7Z"></path><path text="Mylee" text-anchor="start" font-size="100" letter-spacing="0" side="left" offset="0" dx="0" dy="0" space="preserve" href="" font-family="Montserrat" font-scale="contain" x="0" y="0" fill="#6d6e71" font-weight="700" data-fl-textpath="" id="_Tip_urIA4EWCehAhFpASx" transform="matrix(0.679389476776123, 0, 0, 0.679389476776123, 163.3367156982422, 312.0549621582031)" d="M 87.2 0L 72 0L 71.9-42L 51.3-7.4L 44-7.4L 23.5-41.1L 23.5 0L 8.3 0L 8.3-70L 21.7-70L 47.9-26.5L 73.7-70L 87-70L 87.2 0ZM 141.1-53.8L 156.1-53.8L 131.8 3.3Q 128.1 12.6  122.65 16.4Q 117.2 20.2  109.5 20.2L 109.5 20.2Q 105.3 20.2  101.2 18.9Q 97.1 17.6 94.5 15.3L 94.5 15.3L 100.2 4.2Q 102 5.8  104.35 6.7Q 106.7 7.6  109 7.6L 109 7.6Q 112.2 7.6  114.2 6.05Q 116.2 4.5  117.8 0.9L 117.8 0.9L 118 0.4L 94.7-53.8L 110.8-53.8L 125.9-17.3L 141.1-53.8ZM 162.5 0L 162.5-74.2L 178.10000000000002-74.2L 178.10000000000002 0L 162.5 0ZM 245.3-26.7Q 245.3-26.4  245-22.5L 245-22.5L 204.3-22.5Q 205.4-17.5  209.5-14.6Q 213.6-11.7  219.7-11.7L 219.7-11.7Q 223.9-11.7  227.15-12.95Q 230.4-14.2  233.2-16.9L 233.2-16.9L 241.5-7.9Q 233.9 0.8  219.3 0.8L 219.3 0.8Q 210.20000000000002 0.8  203.20000000000002-2.75Q 196.20000000000002-6.3  192.4-12.6Q 188.6-18.9  188.6-26.9L 188.6-26.9Q 188.6-34.8  192.35-41.15Q 196.1-47.5  202.65-51.05Q 209.20000000000002-54.6  217.3-54.6L 217.3-54.6Q 225.2-54.6  231.60000000000002-51.2Q 238-47.8  241.65-41.45Q 245.3-35.1  245.3-26.7L 245.3-26.7ZM 217.4-42.8Q 212.1-42.8  208.5-39.8Q 204.9-36.8  204.1-31.6L 204.1-31.6L 230.60000000000002-31.6Q 229.8-36.7  226.2-39.75Q 222.60000000000002-42.8  217.4-42.8L 217.4-42.8ZM 308.4-26.7Q 308.4-26.4  308.1-22.5L 308.1-22.5L 267.4-22.5Q 268.5-17.5  272.6-14.6Q 276.7-11.7  282.8-11.7L 282.8-11.7Q 287-11.7  290.25-12.95Q 293.5-14.2  296.3-16.9L 296.3-16.9L 304.6-7.9Q 297 0.8  282.4 0.8L 282.4 0.8Q 273.3 0.8  266.3-2.75Q 259.3-6.3  255.5-12.6Q 251.7-18.9  251.7-26.9L 251.7-26.9Q 251.7-34.8  255.45-41.15Q 259.2-47.5  265.75-51.05Q 272.3-54.6  280.4-54.6L 280.4-54.6Q 288.3-54.6  294.7-51.2Q 301.1-47.8  304.75-41.45Q 308.4-35.1  308.4-26.7L 308.4-26.7ZM 280.5-42.8Q 275.2-42.8  271.6-39.8Q 268-36.8  267.2-31.6L 267.2-31.6L 293.7-31.6Q 292.9-36.7  289.3-39.75Q 285.7-42.8  280.5-42.8L 280.5-42.8Z"></path></svg></svg>